<?xml version="1.0" encoding="UTF-8" standalone="no"?>
<!-- Created with Inkscape (http://www.inkscape.org/) -->

<svg
   xmlns:dc="http://purl.org/dc/elements/1.1/"
   xmlns:cc="http://creativecommons.org/ns#"
   xmlns:rdf="http://www.w3.org/1999/02/22-rdf-syntax-ns#"
   xmlns:svg="http://www.w3.org/2000/svg"
   xmlns="http://www.w3.org/2000/svg"
   xmlns:sodipodi="http://sodipodi.sourceforge.net/DTD/sodipodi-0.dtd"
   xmlns:inkscape="http://www.inkscape.org/namespaces/inkscape"
   width="48"
   height="48"
   id="svg3469"
   version="1.1"
   inkscape:version="0.48.1 r9760"
   sodipodi:docname="icon_wii1.svg"
   style="display:inline">
  <defs
     id="defs3471">
    <clipPath
       clipPathUnits="userSpaceOnUse"
       id="clipPath3217-2-6">
      <rect
         style="fill:#333333"
         id="rect3219-3-4"
         width="173.10732"
         height="67.850624"
         x="92.384949"
         y="441.01831" />
    </clipPath>
    <clipPath
       clipPathUnits="userSpaceOnUse"
       id="clipPath3229">
      <rect
         style="fill:#333333"
         id="rect3231"
         width="173.07692"
         height="130.76924"
         x="62.388039"
         y="394.77573" />
    </clipPath>
    <clipPath
       clipPathUnits="userSpaceOnUse"
       id="clipPath3225">
      <rect
         style="fill:#333333"
         id="rect3227"
         width="260.78168"
         height="197.88361"
         x="242.8325"
         y="503.13977" />
    </clipPath>
    <clipPath
       clipPathUnits="userSpaceOnUse"
       id="clipPath3221">
      <rect
         style="fill:#333333"
         id="rect3223"
         width="260.78168"
         height="197.88361"
         x="170.97266"
         y="503.13977" />
    </clipPath>
    <clipPath
       clipPathUnits="userSpaceOnUse"
       id="clipPath3217">
      <rect
         style="fill:#333333"
         id="rect3219"
         width="173.10732"
         height="67.850624"
         x="92.384949"
         y="441.01831" />
    </clipPath>
    <clipPath
       clipPathUnits="userSpaceOnUse"
       id="clipPath3213">
      <rect
         style="fill:#333333"
         id="rect3215"
         width="321.42856"
         height="242.85715"
         x="457.34283"
         y="268.3746" />
    </clipPath>
    <clipPath
       clipPathUnits="userSpaceOnUse"
       id="clipPath3209">
      <rect
         style="fill:#333333"
         id="rect3211"
         width="321.42856"
         height="242.85715"
         x="387.34283"
         y="268.27307" />
    </clipPath>
    <clipPath
       clipPathUnits="userSpaceOnUse"
       id="clipPath3205">
      <rect
         style="fill:#333333"
         id="rect3207"
         width="321.42856"
         height="242.85715"
         x="80"
         y="150.93361" />
    </clipPath>
    <clipPath
       clipPathUnits="userSpaceOnUse"
       id="clipPath3201">
      <rect
         style="fill:#333333"
         id="rect3203"
         width="321.42856"
         height="242.85715"
         x="80"
         y="150.93361" />
    </clipPath>
    <clipPath
       clipPathUnits="userSpaceOnUse"
       id="clipPath3197">
      <rect
         style="fill:#333333"
         id="rect3199"
         width="256.84427"
         height="242.85715"
         x="-421.35522"
         y="17.0236"
         transform="matrix(-0.00453321,-0.99998972,0.99998972,-0.00453321,0,0)" />
    </clipPath>
    <clipPath
       clipPathUnits="userSpaceOnUse"
       id="clipPath3193">
      <rect
         style="fill:#333333"
         id="rect3195"
         width="256.84427"
         height="242.85715"
         x="161.08636"
         y="15.776119"
         transform="matrix(0.00453321,0.99998972,0.99998972,-0.00453321,0,0)" />
    </clipPath>
    <clipPath
       clipPathUnits="userSpaceOnUse"
       id="clipPath3217-2-6-7">
      <rect
         style="fill:#333333"
         id="rect3219-3-4-4"
         width="173.10732"
         height="67.850624"
         x="92.384949"
         y="441.01831" />
    </clipPath>
    <clipPath
       clipPathUnits="userSpaceOnUse"
       id="clipPath3229-4">
      <rect
         style="fill:#333333"
         id="rect3231-9"
         width="173.07692"
         height="130.76924"
         x="62.388039"
         y="394.77573" />
    </clipPath>
    <clipPath
       clipPathUnits="userSpaceOnUse"
       id="clipPath3225-7">
      <rect
         style="fill:#333333"
         id="rect3227-1"
         width="260.78168"
         height="197.88361"
         x="242.8325"
         y="503.13977" />
    </clipPath>
    <clipPath
       clipPathUnits="userSpaceOnUse"
       id="clipPath3221-3">
      <rect
         style="fill:#333333"
         id="rect3223-2"
         width="260.78168"
         height="197.88361"
         x="170.97266"
         y="503.13977" />
    </clipPath>
    <clipPath
       clipPathUnits="userSpaceOnUse"
       id="clipPath3217-6">
      <rect
         style="fill:#333333"
         id="rect3219-0"
         width="173.10732"
         height="67.850624"
         x="92.384949"
         y="441.01831" />
    </clipPath>
    <clipPath
       clipPathUnits="userSpaceOnUse"
       id="clipPath3213-2">
      <rect
         style="fill:#333333"
         id="rect3215-1"
         width="321.42856"
         height="242.85715"
         x="457.34283"
         y="268.3746" />
    </clipPath>
    <clipPath
       clipPathUnits="userSpaceOnUse"
       id="clipPath3209-4">
      <rect
         style="fill:#333333"
         id="rect3211-7"
         width="321.42856"
         height="242.85715"
         x="387.34283"
         y="268.27307" />
    </clipPath>
    <clipPath
       clipPathUnits="userSpaceOnUse"
       id="clipPath3205-9">
      <rect
         style="fill:#333333"
         id="rect3207-0"
         width="321.42856"
         height="242.85715"
         x="80"
         y="150.93361" />
    </clipPath>
    <clipPath
       clipPathUnits="userSpaceOnUse"
       id="clipPath3201-5">
      <rect
         style="fill:#333333"
         id="rect3203-3"
         width="321.42856"
         height="242.85715"
         x="80"
         y="150.93361" />
    </clipPath>
    <clipPath
       clipPathUnits="userSpaceOnUse"
       id="clipPath3197-1">
      <rect
         style="fill:#333333"
         id="rect3199-1"
         width="256.84427"
         height="242.85715"
         x="-421.35522"
         y="17.0236"
         transform="matrix(-0.00453321,-0.99998972,0.99998972,-0.00453321,0,0)" />
    </clipPath>
    <clipPath
       clipPathUnits="userSpaceOnUse"
       id="clipPath3193-6">
      <rect
         style="fill:#333333"
         id="rect3195-7"
         width="256.84427"
         height="242.85715"
         x="161.08636"
         y="15.776119"
         transform="matrix(0.00453321,0.99998972,0.99998972,-0.00453321,0,0)" />
    </clipPath>
  </defs>
  <sodipodi:namedview
     id="base"
     pagecolor="#ffffff"
     bordercolor="#666666"
     borderopacity="1.0"
     inkscape:pageopacity="0.0"
     inkscape:pageshadow="2"
     inkscape:zoom="4.9497475"
     inkscape:cx="31.561083"
     inkscape:cy="24.537963"
     inkscape:current-layer="layer9"
     showgrid="true"
     inkscape:grid-bbox="true"
     inkscape:document-units="px"
     inkscape:window-width="1024"
     inkscape:window-height="523"
     inkscape:window-x="0"
     inkscape:window-y="24"
     inkscape:window-maximized="1" />
  <metadata
     id="metadata3474">
    <rdf:RDF>
      <cc:Work
         rdf:about="">
        <dc:format>image/svg+xml</dc:format>
        <dc:type
           rdf:resource="http://purl.org/dc/dcmitype/StillImage" />
        <dc:title></dc:title>
      </cc:Work>
    </rdf:RDF>
  </metadata>
  <g
     inkscape:groupmode="layer"
     id="layer10"
     inkscape:label="tux"
     style="display:inline">
    <path
       sodipodi:type="arc"
       style="fill:#000000;display:inline"
       id="path3047-0-3"
       sodipodi:cx="180"
       sodipodi:cy="532.36218"
       sodipodi:rx="70"
       sodipodi:ry="50"
       d="m 250,532.36218 a 70,50 0 1 1 -0.0376,-1.63833"
       sodipodi:start="0"
       sodipodi:end="6.2504128"
       sodipodi:open="true"
       transform="matrix(0.34606054,0,0,0.69895847,-38.047236,-307.52999)"
       clip-path="url(#clipPath3217-2-6-7)" />
    <path
       sodipodi:type="arc"
       style="fill:#000000;display:inline"
       id="path3021-6"
       sodipodi:cx="150"
       sodipodi:cy="472.36218"
       sodipodi:rx="70"
       sodipodi:ry="70"
       d="m 220,472.36218 a 70,70 0 1 1 -140,0 70,70 0 1 1 140,0 z"
       transform="matrix(0.24797498,0,0,0.24797496,-13.073308,-88.072781)"
       clip-path="url(#clipPath3229-4)" />
    <path
       sodipodi:type="arc"
       style="fill:#eeeeee;display:inline"
       id="path2991-18"
       sodipodi:cx="338.57144"
       sodipodi:cy="618.07648"
       sodipodi:rx="61.42857"
       sodipodi:ry="62.857143"
       d="m 400.00001,618.07648 a 61.42857,62.857143 0 1 1 -122.85714,0 61.42857,62.857143 0 1 1 122.85714,0 z"
       transform="matrix(0.1645773,0,0,0.16387157,-37.567358,-72.628591)"
       clip-path="url(#clipPath3225-7)" />
    <path
       sodipodi:type="arc"
       style="fill:#eeeeee;display:inline"
       id="path2991-1-7"
       sodipodi:cx="338.57144"
       sodipodi:cy="618.07648"
       sodipodi:rx="61.42857"
       sodipodi:ry="62.857143"
       d="m 400.00001,618.07648 a 61.42857,62.857143 0 1 1 -122.85714,0 61.42857,62.857143 0 1 1 122.85714,0 z"
       transform="matrix(0.1645773,0,0,0.16387157,-25.740858,-72.628591)"
       clip-path="url(#clipPath3221-3)" />
    <path
       sodipodi:type="arc"
       style="fill:#eeeeee;display:inline"
       id="path3047-0"
       sodipodi:cx="180"
       sodipodi:cy="532.36218"
       sodipodi:rx="70"
       sodipodi:ry="50"
       d="m 250,532.36218 a 70,50 0 1 1 -0.0376,-1.63833"
       sodipodi:start="0"
       sodipodi:end="6.2504128"
       sodipodi:open="true"
       transform="matrix(0.26957756,0,0,0.69895847,-24.505086,-307.57016)"
       clip-path="url(#clipPath3217-6)" />
    <path
       sodipodi:type="arc"
       style="fill:#000000;display:inline"
       id="path2996-5"
       sodipodi:cx="585"
       sodipodi:cy="417.36218"
       sodipodi:rx="15"
       sodipodi:ry="15"
       d="m 600,417.36218 a 15,15 0 1 1 -0.008,-0.4915"
       sodipodi:start="0"
       sodipodi:end="6.2504128"
       sodipodi:open="true"
       transform="matrix(0.13352498,0,0,0.13352498,-58.669338,-26.013001)"
       clip-path="url(#clipPath3213-2)" />
    <path
       transform="matrix(0.13352498,0,0,0.13352498,-49.322588,-25.999441)"
       sodipodi:type="arc"
       style="fill:#000000;display:inline"
       id="path2996-1-1"
       sodipodi:cx="585"
       sodipodi:cy="417.36218"
       sodipodi:rx="15"
       sodipodi:ry="15"
       d="m 600,417.36218 a 15,15 0 1 1 -0.008,-0.4915"
       sodipodi:start="0"
       sodipodi:end="6.2504128"
       sodipodi:open="true"
       clip-path="url(#clipPath3209-4)" />
    <path
       style="fill:#fb8b00;stroke:#000000;stroke-width:1.27831244px;stroke-linecap:butt;stroke-linejoin:miter;stroke-opacity:1;display:inline"
       d="m 282.01113,336.98855 -38.63704,-16.26992 -39.96936,16.26992 38.63705,13.76685 z"
       id="path3006-1"
       inkscape:connector-curvature="0"
       clip-path="url(#clipPath3205-9)"
       transform="matrix(0.13352498,0,0,0.13352498,-8.2846389,-10.331691)" />
    <path
       style="fill:#000000;stroke:#000000;stroke-width:1.34256911px;stroke-linecap:butt;stroke-linejoin:miter;stroke-opacity:1;display:inline"
       d="m 280.90759,337.15333 -37.55222,-7.10199 -38.84711,7.10199 38.84711,2.84081 z"
       id="path3008-0"
       inkscape:connector-curvature="0"
       clip-path="url(#clipPath3201-5)"
       transform="matrix(0.13352498,0,0,0.13352498,-8.2846389,-10.331691)" />
    <path
       sodipodi:type="arc"
       style="fill:#6699cc;display:inline"
       id="path3157-3"
       sodipodi:cx="161.6244"
       sodipodi:cy="387.68179"
       sodipodi:rx="45.498917"
       sodipodi:ry="22.498196"
       d="m 207.12332,387.68179 a 45.498917,22.498196 0 1 1 -90.99781,-0.0199"
       sodipodi:start="0"
       sodipodi:end="3.1424757"
       sodipodi:open="true"
       transform="matrix(-7.5750058e-4,0.13352361,-0.16709855,-6.0529679e-4,72.805932,7.5486389)"
       clip-path="url(#clipPath3197-1)" />
    <path
       sodipodi:type="arc"
       style="fill:#6699cc;display:inline"
       id="path3157-6-0"
       sodipodi:cx="161.6244"
       sodipodi:cy="387.68179"
       sodipodi:rx="45.498917"
       sodipodi:ry="22.498196"
       d="m 207.12332,387.68179 a 45.498917,22.498196 0 1 1 -90.99781,-0.0199"
       sodipodi:start="0"
       sodipodi:end="3.1424757"
       sodipodi:open="true"
       transform="matrix(7.5750058e-4,0.13352361,0.16709855,-6.0529679e-4,-24.520218,7.7152089)"
       clip-path="url(#clipPath3193-6)" />
    <path
       style="fill:none;stroke:#000000;stroke-width:1px;stroke-linecap:butt;stroke-linejoin:miter;stroke-opacity:1"
       d="m 41,22.976089 c 0,0 -0.08071,-13.0101531 -17,-13.0101531 -16.9192904,0 -17.0000006,13.0101531 -17.0000006,13.0101531"
       id="path3359"
       inkscape:connector-curvature="0"
       sodipodi:nodetypes="czc" />
    <path
       style="fill:none;stroke:#000000;stroke-width:1px;stroke-linecap:butt;stroke-linejoin:miter;stroke-opacity:1"
       d="m 7.0710672,33.025831 5.9599008,3.939595 3.939595,0"
       id="path3361"
       inkscape:connector-curvature="0" />
    <path
       sodipodi:type="arc"
       style="fill:#333333"
       id="path3363"
       sodipodi:cx="18.08173"
       sodipodi:cy="37.494415"
       sodipodi:rx="1.5152289"
       sodipodi:ry="1.4142135"
       d="m 19.596959,37.494415 a 1.5152289,1.4142135 0 1 1 -0.0062,-0.127311"
       sodipodi:start="0"
       sodipodi:end="6.1930408"
       sodipodi:open="true"
       transform="translate(-5.7599996e-7,-0.52898815)" />
    <path
       style="fill:none;stroke:#000000;stroke-width:1.05928111px;stroke-linecap:butt;stroke-linejoin:miter;stroke-opacity:1;display:inline"
       d="m 40.46714,23.025321 4.448864,0"
       id="path3395"
       inkscape:connector-curvature="0" />
    <path
       style="fill:none;stroke:#000000;stroke-width:1px;stroke-linecap:butt;stroke-linejoin:miter;stroke-opacity:1;display:inline"
       d="m 44.977042,13.479379 0,28.991379"
       id="path3366"
       inkscape:connector-curvature="0" />
    <path
       sodipodi:type="arc"
       style="fill:#fd3301;display:inline"
       id="path3368"
       sodipodi:cx="45.55788"
       sodipodi:cy="13.048722"
       sodipodi:rx="1.3131983"
       sodipodi:ry="1.4142135"
       d="m 46.871079,13.048722 a 1.3131983,1.4142135 0 1 1 -2.626397,0 1.3131983,1.4142135 0 1 1 2.626397,0 z"
       transform="translate(-0.60609208,-0.02391215)" />
    <path
       sodipodi:type="arc"
       style="fill:#fd3301;display:inline"
       id="path3368-3"
       sodipodi:cx="45.55788"
       sodipodi:cy="13.048722"
       sodipodi:rx="1.3131983"
       sodipodi:ry="1.4142135"
       d="m 46.871079,13.048722 a 1.3131983,1.4142135 0 1 1 -2.626397,0 1.3131983,1.4142135 0 1 1 2.626397,0 z"
       transform="translate(-0.55558508,10.001852)" />
    <path
       sodipodi:type="arc"
       style="fill:#fd3301;display:inline"
       id="path3368-8"
       sodipodi:cx="45.55788"
       sodipodi:cy="13.048722"
       sodipodi:rx="1.3131983"
       sodipodi:ry="1.4142135"
       d="m 46.871079,13.048722 a 1.3131983,1.4142135 0 1 1 -2.626397,0 1.3131983,1.4142135 0 1 1 2.626397,0 z"
       transform="translate(-0.55558498,29.447289)" />
  </g>
  <g
     inkscape:groupmode="layer"
     id="layer9"
     inkscape:label="Layer2"
     style="opacity:1;display:inline">
    <g
       id="g4558"
       transform="matrix(0,1,-1,0,48.869759,-25.907184)">
      <rect
         ry="2.2857144"
         y="5.000001"
         x="26.5"
         height="39.42857"
         width="9.8571424"
         id="rect3549"
         style="fill:#cccccf;display:inline" />
      <path
         sodipodi:open="true"
         sodipodi:end="12.467151"
         sodipodi:start="6.21217"
         d="M 29.847971,6.8294504 C 29.879639,7.274639 29.544415,7.6612079 29.099226,7.6928764 28.654038,7.7245448 28.267469,7.3893206 28.2358,6.944132 28.204132,6.4989435 28.539356,6.1123745 28.984545,6.0807061 29.42088,6.0496674 29.802702,6.3714544 29.846033,6.8067412"
         sodipodi:ry="0.80812204"
         sodipodi:rx="0.80812204"
         sodipodi:cy="6.8867912"
         sodipodi:cx="29.041885"
         id="path3573"
         style="fill:#666666"
         sodipodi:type="arc" />
      <path
         sodipodi:open="true"
         sodipodi:end="12.467151"
         sodipodi:start="6.21217"
         d="M 29.847971,6.8294504 C 29.879639,7.274639 29.544415,7.6612079 29.099226,7.6928764 28.654038,7.7245448 28.267469,7.3893206 28.2358,6.944132 28.204132,6.4989435 28.539356,6.1123745 28.984545,6.0807061 29.42088,6.0496674 29.802702,6.3714544 29.846033,6.8067412"
         sodipodi:ry="0.80812204"
         sodipodi:rx="0.80812204"
         sodipodi:cy="6.8867912"
         sodipodi:cx="29.041885"
         id="path3573-2"
         style="opacity:0.79991599;fill:#cccccf;display:inline"
         sodipodi:type="arc"
         transform="matrix(0.855,0,0,0.855,4.213831,0.99572091)" />
      <path
         sodipodi:open="true"
         sodipodi:end="12.467151"
         sodipodi:start="6.21217"
         d="M 29.847971,6.8294504 C 29.879639,7.274639 29.544415,7.6612079 29.099226,7.6928764 28.654038,7.7245448 28.267469,7.3893206 28.2358,6.944132 28.204132,6.4989435 28.539356,6.1123745 28.984545,6.0807061 29.42088,6.0496674 29.802702,6.3714544 29.846033,6.8067412"
         sodipodi:ry="0.80812204"
         sodipodi:rx="0.80812204"
         sodipodi:cy="6.8867912"
         sodipodi:cx="29.041885"
         id="path3573-2-5-2"
         style="opacity:0.79991599;fill:#980101;display:inline"
         sodipodi:type="arc"
         transform="matrix(0.55404,0,0,0.55404,12.954276,3.0683699)" />
      <path
         sodipodi:open="true"
         sodipodi:end="12.467151"
         sodipodi:start="6.21217"
         d="M 29.847971,6.8294504 C 29.879639,7.274639 29.544415,7.6612079 29.099226,7.6928764 28.654038,7.7245448 28.267469,7.3893206 28.2358,6.944132 28.204132,6.4989435 28.539356,6.1123745 28.984545,6.0807061 29.42088,6.0496674 29.802702,6.3714544 29.846033,6.8067412"
         sodipodi:ry="0.80812204"
         sodipodi:rx="0.80812204"
         sodipodi:cy="6.8867912"
         sodipodi:cx="29.041885"
         id="path3573-2-5"
         style="opacity:0.79991599;fill:#cccccf;display:inline"
         sodipodi:type="arc"
         transform="matrix(0.40894385,0,0,0.40894385,17.168143,4.0676171)" />
      <rect
         ry="0.11535714"
         y="6.3125"
         x="28.973215"
         height="0.30357143"
         width="0.16964285"
         id="rect3633"
         style="fill:#980101" />
      <rect
         ry="0.11535714"
         y="10.696428"
         x="29.160715"
         height="1.6071428"
         width="4.7678571"
         id="rect3637"
         style="fill:#666666" />
      <rect
         ry="0.11535714"
         y="9.1071424"
         x="30.732143"
         height="4.7678571"
         width="1.5892857"
         id="rect3639"
         style="fill:#666666" />
      <rect
         ry="0.10382143"
         y="9.336607"
         x="30.802679"
         height="4.2910714"
         width="1.4303572"
         id="rect3639-3"
         style="opacity:0.79991599;fill:#cccccf;display:inline" />
      <rect
         ry="0.10382143"
         y="10.758928"
         x="29.390179"
         height="1.4464285"
         width="4.2910714"
         id="rect3637-8"
         style="opacity:0.79991599;fill:#cccccf;display:inline" />
      <rect
         ry="0.13392857"
         y="11.375"
         x="29.642857"
         height="0.26785713"
         width="0.75"
         id="rect3677"
         style="fill:#003366" />
      <rect
         ry="0.13392857"
         y="11.366072"
         x="32.69643"
         height="0.26785713"
         width="0.75"
         id="rect3677-9"
         style="opacity:0.79991599;fill:#003366;display:inline" />
      <rect
         transform="matrix(0,1,-1,0,0,0)"
         ry="0.13392857"
         y="-31.669643"
         x="9.625"
         height="0.26785713"
         width="0.75"
         id="rect3677-0"
         style="opacity:0.79991599;fill:#003366;display:inline" />
      <rect
         transform="matrix(0,1,-1,0,0,0)"
         ry="0.13392857"
         y="-31.6875"
         x="12.660714"
         height="0.26785713"
         width="0.75"
         id="rect3677-0-2"
         style="opacity:0.79991599;fill:#003366;display:inline" />
      <path
         transform="translate(-0.14285714,0)"
         sodipodi:open="true"
         sodipodi:end="12.467151"
         sodipodi:start="6.21217"
         d="m 33.210415,17.193337 c 0.06018,0.855851 -0.576862,1.599009 -1.422876,1.65989 -0.846014,0.06088 -1.58063,-0.583569 -1.640811,-1.439421 -0.06018,-0.855851 0.576862,-1.599009 1.422876,-1.65989 0.82919,-0.05967 1.554784,0.558948 1.637129,1.395764"
         sodipodi:ry="1.5535715"
         sodipodi:rx="1.5357143"
         sodipodi:cy="17.303572"
         sodipodi:cx="31.678572"
         id="path3722"
         style="fill:#666666"
         sodipodi:type="arc" />
      <path
         transform="matrix(0.9,0,0,0.9,3.0249998,1.7124976)"
         sodipodi:open="true"
         sodipodi:end="12.467151"
         sodipodi:start="6.21217"
         d="m 33.210415,17.193337 c 0.06018,0.855851 -0.576862,1.599009 -1.422876,1.65989 -0.846014,0.06088 -1.58063,-0.583569 -1.640811,-1.439421 -0.06018,-0.855851 0.576862,-1.599009 1.422876,-1.65989 0.82919,-0.05967 1.554784,0.558948 1.637129,1.395764"
         sodipodi:ry="1.5535715"
         sodipodi:rx="1.5357143"
         sodipodi:cy="17.303572"
         sodipodi:cx="31.678572"
         id="path3722-6"
         style="opacity:0.79991599;fill:#cccccf;display:inline"
         sodipodi:type="arc" />
      <path
         transform="translate(-0.07142857,0)"
         sodipodi:open="true"
         sodipodi:end="12.467151"
         sodipodi:start="6.21217"
         d="m 29.748019,23.72743 c 0.03079,0.452519 -0.295139,0.845453 -0.727983,0.877643 -0.432845,0.03219 -0.808695,-0.308554 -0.839485,-0.761073 -0.03079,-0.452519 0.295139,-0.845453 0.727983,-0.877643 0.424237,-0.03155 0.795471,0.295536 0.837601,0.73799"
         sodipodi:ry="0.8214286"
         sodipodi:rx="0.78571427"
         sodipodi:cy="23.785715"
         sodipodi:cx="28.964285"
         id="path3744"
         style="fill:#666666"
         sodipodi:type="arc" />
      <path
         transform="matrix(0.9,0,0,0.9,2.8250008,2.3785696)"
         sodipodi:open="true"
         sodipodi:end="12.467151"
         sodipodi:start="6.21217"
         d="m 29.748019,23.72743 c 0.03079,0.452519 -0.295139,0.845453 -0.727983,0.877643 -0.432845,0.03219 -0.808695,-0.308554 -0.839485,-0.761073 -0.03079,-0.452519 0.295139,-0.845453 0.727983,-0.877643 0.424237,-0.03155 0.795471,0.295536 0.837601,0.73799"
         sodipodi:ry="0.8214286"
         sodipodi:rx="0.78571427"
         sodipodi:cy="23.785715"
         sodipodi:cx="28.964285"
         id="path3744-4"
         style="opacity:0.79991599;fill:#cccccf;display:inline"
         sodipodi:type="arc" />
      <path
         transform="translate(2.5357151,0.03571217)"
         sodipodi:open="true"
         sodipodi:end="12.467151"
         sodipodi:start="6.21217"
         d="m 29.748019,23.72743 c 0.03079,0.452519 -0.295139,0.845453 -0.727983,0.877643 -0.432845,0.03219 -0.808695,-0.308554 -0.839485,-0.761073 -0.03079,-0.452519 0.295139,-0.845453 0.727983,-0.877643 0.424237,-0.03155 0.795471,0.295536 0.837601,0.73799"
         sodipodi:ry="0.8214286"
         sodipodi:rx="0.78571427"
         sodipodi:cy="23.785715"
         sodipodi:cx="28.964285"
         id="path3744-5"
         style="opacity:0.79991599;fill:#666666;display:inline"
         sodipodi:type="arc" />
      <path
         transform="matrix(0.9,0,0,0.9,5.4321441,2.4142811)"
         sodipodi:open="true"
         sodipodi:end="12.467151"
         sodipodi:start="6.21217"
         d="m 29.748019,23.72743 c 0.03079,0.452519 -0.295139,0.845453 -0.727983,0.877643 -0.432845,0.03219 -0.808695,-0.308554 -0.839485,-0.761073 -0.03079,-0.452519 0.295139,-0.845453 0.727983,-0.877643 0.424237,-0.03155 0.795471,0.295536 0.837601,0.73799"
         sodipodi:ry="0.8214286"
         sodipodi:rx="0.78571427"
         sodipodi:cy="23.785715"
         sodipodi:cx="28.964285"
         id="path3744-4-7"
         style="opacity:0.79991599;fill:#cccccf;display:inline"
         sodipodi:type="arc" />
      <path
         transform="translate(5.1785723,0.10714075)"
         sodipodi:open="true"
         sodipodi:end="12.467151"
         sodipodi:start="6.21217"
         d="m 29.748019,23.72743 c 0.03079,0.452519 -0.295139,0.845453 -0.727983,0.877643 -0.432845,0.03219 -0.808695,-0.308554 -0.839485,-0.761073 -0.03079,-0.452519 0.295139,-0.845453 0.727983,-0.877643 0.424237,-0.03155 0.795471,0.295536 0.837601,0.73799"
         sodipodi:ry="0.8214286"
         sodipodi:rx="0.78571427"
         sodipodi:cy="23.785715"
         sodipodi:cx="28.964285"
         id="path3744-8"
         style="opacity:0.79991599;fill:#666666;display:inline"
         sodipodi:type="arc" />
      <path
         transform="matrix(0.9,0,0,0.9,8.0750013,2.4857098)"
         sodipodi:open="true"
         sodipodi:end="12.467151"
         sodipodi:start="6.21217"
         d="m 29.748019,23.72743 c 0.03079,0.452519 -0.295139,0.845453 -0.727983,0.877643 -0.432845,0.03219 -0.808695,-0.308554 -0.839485,-0.761073 -0.03079,-0.452519 0.295139,-0.845453 0.727983,-0.877643 0.424237,-0.03155 0.795471,0.295536 0.837601,0.73799"
         sodipodi:ry="0.8214286"
         sodipodi:rx="0.78571427"
         sodipodi:cy="23.785715"
         sodipodi:cx="28.964285"
         id="path3744-4-1"
         style="opacity:0.79991599;fill:#cccccf;display:inline"
         sodipodi:type="arc" />
      <path
         sodipodi:open="true"
         sodipodi:end="12.467151"
         sodipodi:start="6.21217"
         d="m 32.568773,33.800243 c 0.04129,0.580405 -0.395755,1.084386 -0.97616,1.125673 -0.580404,0.04129 -1.084385,-0.395754 -1.125672,-0.976159 -0.04129,-0.580405 0.395754,-1.084386 0.976159,-1.125673 0.568863,-0.04047 1.066654,0.379057 1.123146,0.946552"
         sodipodi:ry="1.0535715"
         sodipodi:rx="1.0535715"
         sodipodi:cy="33.875"
         sodipodi:cx="31.517857"
         id="path3794"
         style="fill:#666666"
         sodipodi:type="arc" />
      <path
         sodipodi:open="true"
         sodipodi:end="12.467151"
         sodipodi:start="6.21217"
         d="m 32.568773,33.800243 c 0.04129,0.580405 -0.395755,1.084386 -0.97616,1.125673 -0.580404,0.04129 -1.084385,-0.395754 -1.125672,-0.976159 -0.04129,-0.580405 0.395754,-1.084386 0.976159,-1.125673 0.568863,-0.04047 1.066654,0.379057 1.123146,0.946552"
         sodipodi:ry="1.0535715"
         sodipodi:rx="1.0535715"
         sodipodi:cy="33.875"
         sodipodi:cx="31.517857"
         id="path3794-0"
         style="opacity:0.79991599;fill:#cccccf;display:inline"
         sodipodi:type="arc"
         transform="matrix(0.9,0,0,0.9,3.1339291,3.3696414)" />
      <path
         sodipodi:open="true"
         sodipodi:end="12.467151"
         sodipodi:start="6.21217"
         d="m 32.568773,33.800243 c 0.04129,0.580405 -0.395755,1.084386 -0.97616,1.125673 -0.580404,0.04129 -1.084385,-0.395754 -1.125672,-0.976159 -0.04129,-0.580405 0.395754,-1.084386 0.976159,-1.125673 0.568863,-0.04047 1.066654,0.379057 1.123146,0.946552"
         sodipodi:ry="1.0535715"
         sodipodi:rx="1.0535715"
         sodipodi:cy="33.875"
         sodipodi:cx="31.517857"
         id="path3794-9"
         style="opacity:0.79991599;fill:#666666;display:inline"
         sodipodi:type="arc"
         transform="translate(-0.01785656,3.4464269)" />
      <path
         sodipodi:open="true"
         sodipodi:end="12.467151"
         sodipodi:start="6.21217"
         d="m 32.568773,33.800243 c 0.04129,0.580405 -0.395755,1.084386 -0.97616,1.125673 -0.580404,0.04129 -1.084385,-0.395754 -1.125672,-0.976159 -0.04129,-0.580405 0.395754,-1.084386 0.976159,-1.125673 0.568863,-0.04047 1.066654,0.379057 1.123146,0.946552"
         sodipodi:ry="1.0535715"
         sodipodi:rx="1.0535715"
         sodipodi:cy="33.875"
         sodipodi:cx="31.517857"
         id="path3794-0-8"
         style="opacity:0.79991599;fill:#cccccf;display:inline"
         sodipodi:type="arc"
         transform="matrix(0.9,0,0,0.9,3.1160724,6.8160679)" />
      <rect
         ry="0"
         y="39.857143"
         x="33.892857"
         height="0.5714286"
         width="0.53571427"
         id="rect3837"
         style="fill:#666666" />
      <rect
         ry="0"
         y="39.822468"
         x="32.120159"
         height="0.5714286"
         width="0.53571427"
         id="rect3837-2"
         style="opacity:0.79991599;fill:#666666;display:inline" />
      <rect
         ry="0"
         y="39.809841"
         x="30.365019"
         height="0.5714286"
         width="0.53571427"
         id="rect3837-1"
         style="opacity:0.79991599;fill:#666666;display:inline" />
      <rect
         ry="0"
         y="39.797215"
         x="28.68564"
         height="0.5714286"
         width="0.53571427"
         id="rect3837-4"
         style="opacity:0.79991599;fill:#0197fd;display:inline" />
      <rect
         y="28.190115"
         x="30.635462"
         height="0.44642857"
         width="0.4107143"
         id="rect3871"
         style="fill:#666666" />
      <rect
         y="28.185335"
         x="31.3125"
         height="0.44642857"
         width="0.4107143"
         id="rect3871-7"
         style="opacity:0.79991599;fill:#666666;display:inline" />
      <rect
         y="28.190561"
         x="31.967985"
         height="0.44642857"
         width="0.4107143"
         id="rect3871-2"
         style="opacity:0.79991599;fill:#666666;display:inline" />
      <rect
         y="28.901728"
         x="30.632513"
         height="0.44642857"
         width="0.4107143"
         id="rect3871-9"
         style="opacity:0.79991599;fill:#666666;display:inline" />
      <rect
         y="28.896948"
         x="31.309551"
         height="0.44642857"
         width="0.4107143"
         id="rect3871-7-2"
         style="opacity:0.79991599;fill:#666666;display:inline" />
      <rect
         y="28.902174"
         x="31.965036"
         height="0.44642857"
         width="0.4107143"
         id="rect3871-2-4"
         style="opacity:0.79991599;fill:#666666;display:inline" />
      <rect
         y="29.627773"
         x="30.632513"
         height="0.44642857"
         width="0.4107143"
         id="rect3871-1"
         style="opacity:0.79991599;fill:#888888;display:inline" />
      <rect
         y="29.622993"
         x="31.309551"
         height="0.44642857"
         width="0.4107143"
         id="rect3871-7-6"
         style="opacity:0.79991599;fill:#888888;display:inline" />
      <rect
         y="29.62822"
         x="31.965036"
         height="0.44642857"
         width="0.4107143"
         id="rect3871-2-5"
         style="opacity:0.79991599;fill:#888888;display:inline" />
      <rect
         y="30.341194"
         x="30.632513"
         height="0.44642857"
         width="0.4107143"
         id="rect3871-25"
         style="opacity:0.79991599;fill:#aaaaaa;display:inline" />
      <rect
         y="30.336414"
         x="31.309551"
         height="0.44642857"
         width="0.4107143"
         id="rect3871-7-26"
         style="opacity:0.79991599;fill:#aaaaaa;display:inline" />
      <rect
         y="30.34164"
         x="31.965036"
         height="0.44642857"
         width="0.4107143"
         id="rect3871-2-51"
         style="opacity:0.79991599;fill:#aaaaaa;display:inline" />
      <rect
         y="27.481199"
         x="30.632513"
         height="0.44642857"
         width="0.4107143"
         id="rect3871-4"
         style="opacity:0.79991599;fill:#888888;display:inline" />
      <rect
         y="27.476419"
         x="31.309551"
         height="0.44642857"
         width="0.4107143"
         id="rect3871-7-8"
         style="opacity:0.79991599;fill:#888888;display:inline" />
      <rect
         y="27.481646"
         x="31.965036"
         height="0.44642857"
         width="0.4107143"
         id="rect3871-2-1"
         style="opacity:0.79991599;fill:#888888;display:inline" />
      <rect
         y="26.755152"
         x="30.632513"
         height="0.44642857"
         width="0.4107143"
         id="rect3871-15"
         style="opacity:0.79991599;fill:#aaaaaa;display:inline" />
      <rect
         y="26.750372"
         x="31.309551"
         height="0.44642857"
         width="0.4107143"
         id="rect3871-7-9"
         style="opacity:0.79991599;fill:#aaaaaa;display:inline" />
      <rect
         y="26.755598"
         x="31.965036"
         height="0.44642857"
         width="0.4107143"
         id="rect3871-2-2"
         style="opacity:0.79991599;fill:#aaaaaa;display:inline" />
    </g>
  </g>
</svg>
