/* XPM */
static char * linuxtrack_wii_xpm[] = {
"32 32 180 2",
"  	c None",
". 	c #CCCCCF",
"+ 	c #C4CAD1",
"@ 	c #CBCBCF",
"# 	c #B2B2B4",
"$ 	c #C3C3C6",
"% 	c #BCB7BA",
"& 	c #BDB8B9",
"* 	c #C0C8D1",
"= 	c #CACBCF",
"- 	c #B3B3B5",
"; 	c #C5C5C8",
"> 	c #BFBFC3",
", 	c #BDBDC0",
"' 	c #9B9FA4",
") 	c #AEAEB0",
"! 	c #B4A9AC",
"~ 	c #B3A7AC",
"{ 	c #CBCBCE",
"] 	c #BABABE",
"^ 	c #AAAAAC",
"/ 	c #ABABAD",
"( 	c #C1C1C3",
"_ 	c #B2B2B5",
": 	c #B0B0B2",
"< 	c #C4C4C6",
"[ 	c #A7A7A9",
"} 	c #ADADAF",
"| 	c #C9C9CC",
"1 	c #A0A2A5",
"2 	c #B8B8BC",
"3 	c #ACAEB5",
"4 	c #A9AAAD",
"5 	c #C2C2C5",
"6 	c #C7C7CA",
"7 	c #BDBDBE",
"8 	c #C6C6C9",
"9 	c #BFBFC0",
"0 	c #A6A6A9",
"a 	c #A6A6A8",
"b 	c #BCBCBE",
"c 	c #A0A3A7",
"d 	c #A9A9AC",
"e 	c #C1C1C2",
"f 	c #BFBFC1",
"g 	c #C5C5C7",
"h 	c #B8B8BA",
"i 	c #BEBEC0",
"j 	c #CCCCD0",
"k 	c #CACACD",
"l 	c #000000",
"m 	c #FB3301",
"n 	c #FC3201",
"o 	c #9B1F00",
"p 	c #941E00",
"q 	c #333333",
"r 	c #858585",
"s 	c #A8A8A8",
"t 	c #ABABAB",
"u 	c #8F8F8F",
"v 	c #464646",
"w 	c #010101",
"x 	c #3F3F3F",
"y 	c #8B8B8B",
"z 	c #AAAAAA",
"A 	c #A9A9A9",
"B 	c #898989",
"C 	c #3B3B3B",
"D 	c #0D0D0D",
"E 	c #9C9C9C",
"F 	c #EEEEEE",
"G 	c #BDBDBD",
"H 	c #B6B6B6",
"I 	c #141414",
"J 	c #C3C3C3",
"K 	c #CFCFCF",
"L 	c #151515",
"M 	c #861C00",
"N 	c #8B1B00",
"O 	c #476A8F",
"P 	c #1A2634",
"Q 	c #949494",
"R 	c #A6A6A6",
"S 	c #080B0F",
"T 	c #111922",
"U 	c #010103",
"V 	c #CE2901",
"W 	c #E72E01",
"X 	c #659ACC",
"Y 	c #6699CC",
"Z 	c #334150",
"` 	c #EBEBEB",
" .	c #33383D",
"..	c #677684",
"+.	c #787D81",
"@.	c #818E9C",
"#.	c #EDEDED",
"$.	c #939393",
"%.	c #9B9B9B",
"&.	c #E7E7E7",
"*.	c #9A9FA3",
"=.	c #26394B",
"-.	c #84929F",
";.	c #BCBCBC",
">.	c #DCDCDC",
",.	c #040404",
"'.	c #9DA1A5",
").	c #2B4257",
"!.	c #6E7C89",
"~.	c #C8C8C8",
"{.	c #0C0C0C",
"].	c #111111",
"^.	c #D7D7D7",
"/.	c #232323",
"(.	c #AEAEAE",
"_.	c #83868A",
":.	c #253647",
"<.	c #6293C4",
"[.	c #3B4854",
"}.	c #E1E1E1",
"|.	c #E3E3E3",
"1.	c #E1D5C6",
"2.	c #DBC6AD",
"3.	c #E8E8E8",
"4.	c #DBDBDB",
"5.	c #424549",
"6.	c #527CA4",
"7.	c #070B0F",
"8.	c #8C8C8C",
"9.	c #E5E3E1",
"0.	c #B59977",
"a.	c #926125",
"b.	c #814801",
"c.	c #7C4500",
"d.	c #915A15",
"e.	c #AC8A5E",
"f.	c #DED9D4",
"g.	c #BFBFBF",
"h.	c #070B0E",
"i.	c #0A0E13",
"j.	c #0F0F0F",
"k.	c #5A5A5A",
"l.	c #B1AAA4",
"m.	c #957751",
"n.	c #925D1B",
"o.	c #945200",
"p.	c #915000",
"q.	c #905A16",
"r.	c #94744B",
"s.	c #B8ADA2",
"t.	c #2B2B2B",
"u.	c #020506",
"v.	c #1C1C1C",
"w.	c #424242",
"x.	c #4F4F4F",
"y.	c #434343",
"z.	c #393939",
"A.	c #EAEAEA",
"B.	c #DDCCB6",
"C.	c #DBC8AF",
"D.	c #E2E2E2",
"E.	c #303030",
"F.	c #373737",
"G.	c #B5B5B5",
"H.	c #A7A7A7",
"I.	c #484848",
"J.	c #030303",
"K.	c #C0C0C0",
"L.	c #C6C6C6",
"M.	c #515151",
"N.	c #4D4D4D",
"O.	c #951E00",
"P.	c #9A1F00",
"Q.	c #B8B8B8",
"R.	c #C1C1C1",
"S.	c #F53101",
"T.	c #F63201",
"U.	c #2D2D2D",
"V.	c #D4D4D4",
"W.	c #D5D5D5",
"        . . . . . . . . . . . . . . . . . . . . . . . .         ",
"      . . + @ . . . . . . . . . # $ . . . . . . . . . % &       ",
"      . . * = . . . . . . . . . - ; . . > , . . ' ) . ! ~       ",
"      . . $ { ) ] ^ / . ( _ $ . : < . . [ } | 1 2 3 4 . .       ",
"      . . 5 { 2 6 , 7 . 8 9 6 . < { . . 0 a { b c d e . .       ",
"      . . f . . . . . . . . . . } g . . . . . . h i . . .       ",
"      j . . . . . . . k 6 ; $ $ $ $ ; 6 k . . . . . . . .       ",
"                    l l                 l l                     ",
"                l       l l l l l l l l       l           m n   ",
"              l     l l l l l l l l l l l l     l         o p   ",
"            l     l l l l l l l l l l l l l l l   l             ",
"          l     l l l l l l l l l l l l l l l l l   l           ",
"          l   l l q r s t u v w l x y z A B C l l   l           ",
"            l D E F F F F F F G H F F F F F F s I l             ",
"        l   D J F F F F F F F F F F F F F F F F K L l l   M N   ",
"        O P Q F F F F F F F F F F F F F F F F F F R S T U V W   ",
"      X Y Z ` F F F F F F F F F F F F F F F F F F F  .Y X       ",
"      Y Y ..F F F F F F F F F F F F F F F F F F F F +.Y Y       ",
"      Y Y @.F F F F F #.$.%.F F F F t B &.F F F F F *.Y Y =.    ",
"      Y Y -.F F F F F s l l ;.F F >.,.l r F F F F F '.Y Y ).    ",
"      Y Y !.F F F F F ~.{.].^.F F &./.,.(.F F F F F _.Y Y :.    ",
"      Y <.[.F F F F F F }.|.F 1.2.F 3.4.F F F F F F 5.Y Y       ",
"        6.7.8.F F F F F 9.0.a.b.c.d.e.f.F F F F F g.h.Y         ",
"          i.j.k.|.F F >.l.m.n.o.p.q.r.s.F F F F |.t.u.          ",
"            l v.w.x.x.y.z.A.F B.C.#.F F F F F D.E.l             ",
"            l F.#.F F G.H.F F F F F F F F F F F I.l l           ",
"          l J.K.F F F F F F F F F F F F F F F F L.w l l         ",
"        l l M.F F F F F F F F F F F F F F F F F F N.l l   O.P.  ",
"        l l Q.F F F F F F F F F F F F F F F F F F R.w l l S.T.  ",
"      l l U.F F F F F F F F F F F F F F F F F F F F F.l l       ",
"      l l 8.F F F F F F F F F F F F F F F F F F F F r l l l     ",
"    l l l V.F F F F F F F F F F F F F F F F F F F F W.w l l     "};
