/* XPM */
static char * linuxtrack_xpm[] = {
"32 32 148 2",
"  	c None",
". 	c #000000",
"+ 	c #FD3202",
"@ 	c #FD3302",
"# 	c #F73201",
"$ 	c #F23001",
"% 	c #040404",
"& 	c #595959",
"* 	c #A2A2A2",
"= 	c #C6C6C6",
"- 	c #CECECE",
"; 	c #BCBCBC",
"> 	c #858585",
", 	c #2C2C2C",
"' 	c #151515",
") 	c #747474",
"! 	c #B3B3B3",
"~ 	c #CBCBCB",
"{ 	c #CACACA",
"] 	c #AFAFAF",
"^ 	c #6E6E6E",
"/ 	c #101010",
"( 	c #242424",
"_ 	c #C5C5C5",
": 	c #EEEEEE",
"< 	c #EBEBEB",
"[ 	c #ABABAB",
"} 	c #E1E1E1",
"| 	c #DBDBDB",
"1 	c #494949",
"2 	c #2B2B2B",
"3 	c #DEDEDE",
"4 	c #575757",
"5 	c #831B00",
"6 	c #891B00",
"7 	c #334E68",
"8 	c #080808",
"9 	c #D0D0D0",
"0 	c #E8E8E8",
"a 	c #2A2A2A",
"b 	c #101820",
"c 	c #050709",
"d 	c #EF3101",
"e 	c #F33101",
"f 	c #6699CC",
"g 	c #5986B3",
"h 	c #686868",
"i 	c #A1A1A1",
"j 	c #2F465E",
"k 	c #8D1C00",
"l 	c #941E00",
"m 	c #6798CC",
"n 	c #547EA8",
"o 	c #BEBEBE",
"p 	c #EAEAEA",
"q 	c #344A5F",
"r 	c #527AA3",
"s 	c #ECECEC",
"t 	c #4E6479",
"u 	c #121E28",
"v 	c #547CA3",
"w 	c #E6E6E6",
"x 	c #070707",
"y 	c #D5D5D5",
"z 	c #212121",
"A 	c #0F0F0F",
"B 	c #5B7085",
"C 	c #1F2F3E",
"D 	c #5078A0",
"E 	c #C3C3C3",
"F 	c #525252",
"G 	c #A0A0A0",
"H 	c #757575",
"I 	c #52677B",
"J 	c #1E2A3A",
"K 	c #659ACC",
"L 	c #CFCFCF",
"M 	c #5F5F5F",
"N 	c #BDBDBD",
"O 	c #E2E2E2",
"P 	c #363636",
"Q 	c #3A4E63",
"R 	c #3B5A77",
"S 	c #818181",
"T 	c #D8CFC4",
"U 	c #CEA471",
"V 	c #CCB598",
"W 	c #283C50",
"X 	c #6699CA",
"Y 	c #273A4F",
"Z 	c #060606",
"` 	c #C7C7C7",
" .	c #E9E8E6",
"..	c #AA9070",
"+.	c #885B23",
"@.	c #784301",
"#.	c #5B3300",
"$.	c #6E3C00",
"%.	c #804E11",
"&.	c #9A7A51",
"*.	c #D7D0C7",
"=.	c #434343",
"-.	c #2C4358",
";.	c #141414",
">.	c #7E7E7E",
",.	c #BBBAB8",
"'.	c #A69176",
").	c #9C6F38",
"!.	c #9C5A08",
"~.	c #9F5800",
"{.	c #9D5803",
"].	c #986528",
"^.	c #A28563",
"/.	c #C8C3BB",
"(.	c #888888",
"_.	c #17232D",
":.	c #3A3A3A",
"<.	c #4F4F4F",
"[.	c #4C4C4C",
"}.	c #333333",
"|.	c #E0DCD9",
"1.	c #CFB494",
"2.	c #D8CFC6",
"3.	c #8B8B8B",
"4.	c #030303",
"5.	c #676767",
"6.	c #E4E4E4",
"7.	c #9B9B9B",
"8.	c #6F6F6F",
"9.	c #E0E0E0",
"0.	c #8C8C8C",
"a.	c #131313",
"b.	c #DFDFDF",
"c.	c #303030",
"d.	c #808080",
"e.	c #ADADAD",
"f.	c #DCDCDC",
"g.	c #313131",
"h.	c #F43201",
"i.	c #5B5B5B",
"j.	c #969696",
"k.	c #F83302",
"l.	c #010101",
"m.	c #0A0A0A",
"n.	c #282828",
"o.	c #4A4A4A",
"p.	c #626262",
"q.	c #D2D2D2",
"                                                                ",
"                                                                ",
"                                                                ",
"                                                                ",
"                    . . .           . . . .                     ",
"                .         . . . . .         . .             + @ ",
"            .       . . . . . . . . . . .       .           # $ ",
"          .     . . . . . . . . . . . . . . .     .             ",
"        .     . . . . . . . . . . . . . . . . .     .           ",
"        .   . . . . . . . . . . . . . . . . . . .   .           ",
"      .   . . % & * = - ; > , . ' ) ! ~ { ] ^ / . .   .         ",
"      .   . ( _ : : : : : : < [ } : : : : : : | 1 . . .         ",
"      . . 2 3 : : : : : : : : : : : : : : : : : < 4 . .     5 6 ",
"      7 8 9 : : : : : : : : : : : : : : : : : : : 0 a b c . d e ",
"    f g h : : : : : : : : : : : : : : : : : : : : : i j f   k l ",
"  m f n o : : : : : : : : : : : : : : : : : : : : : p q f f     ",
"  f f r s : : : : : : : : : : : : : : : : : : : : : : t f f u   ",
"  f f v : : : : : : w a x i : : : y z A ; : : : : : : B f f C   ",
"  f f D : : : : : : E . . F : : : G . . H : : : : : : I f f J   ",
"  K f D L : : : : : s M , N : : : O 1 P 9 : : : : : : Q f f     ",
"    f R S : : : : : : : : : T U V < : : : : : : : : ; W f f     ",
"    X Y Z ` : : : : :  ...+.@.#.$.%.&.*.: : : : : : =.-.f       ",
"        . ;.>.s : : | ,.'.).!.~.{.].^./.: : : : : (.. _.        ",
"        . . , :.<.<.[.}.; : |.1.2.: : : : : : : 3.4..           ",
"        . . 5.6.3 3 7.8.9.: : : : : : : : : : : 0.. .           ",
"      . . a.b.: : : : : : : : : : : : : : : : : s c.. .         ",
"      . . d.: : : : : : : : : : : : : : : : : : : e.. . .       ",
"    . . 8 f.: : : : : : : : : : : : : : : : : : : : g.. .   h.e ",
"    . . i.: : : : : : : : : : : : : : : : : : : : : j.. . . k.@ ",
"  . . l.= : : : : : : : : : : : : : : : : : : : : : w m.. .     ",
"  . . n.: : : : : : : : : : : : : : : : : : : : : : : o.. . .   ",
". . . p.q.q.q.q.q.q.q.q.q.q.q.q.q.q.q.q.q.q.q.q.q.q.q.> . . .   "};
